<svg xmlns="http://www.w3.org/2000/svg" viewBox="0 0 134.5049 60.2822"><defs><style>.cls-1{fill:#fff;}</style></defs><g id="Ebene_2" data-name="Ebene 2"><g id="Ebene_1-2" data-name="Ebene 1"><path class="cls-1" d="M115.248,53.3906h-1.082l.3145-1.6455-1.2022.2383-.2764,1.4072h-.7685l-.1846.9151h.7852l-.4248,2.2021c-.2041,1.1006.0742,1.5723,1.0635,1.5723a4.3084,4.3084,0,0,0,.9433-.12l.11-.9433a2.5064,2.5064,0,0,1-.5733.0654c-.3789,0-.4619-.1484-.3506-.7031l.3877-2.0732h1.0821Zm-2.6826-2.1553a3.4842,3.4842,0,0,0-.749-.0732,1.9753,1.9753,0,0,0-2.1553,1.8867l-.0654.3418H108.82l-.1855.9151h.7871l-.7315,3.84c-.1767.916-.4717,1.1562-.9892,1.1562a2.2263,2.2263,0,0,1-.5459-.0742l-.2686.97a3.7409,3.7409,0,0,0,.7949.0849c1.1475,0,1.8877-.6474,2.1641-2.1279l.7314-3.8486h1.0538l.1757-.9151h-1.0449l.0557-.3047c.13-.7041.3887-.9629.9248-.9629a2.2952,2.2952,0,0,1,.5547.0733Zm-6.41,3.0616-.0557.2959c-.1836.9716-1.0078,2.48-1.6641,2.48-.2324,0-.3515-.1846-.3515-.6387,0-.9619.4892-2.2022,1.5527-2.2022a2.0654,2.0654,0,0,1,.5186.0655m1.3134-.8506a8.531,8.531,0,0,0-1.6269-.1387c-2.0176,0-2.9512,1.6094-2.9512,3.3477,0,.9814.38,1.4336,1.0821,1.4336.916,0,1.5537-.8868,1.9238-1.5625h.0195a12.536,12.536,0,0,0-.418,1.4707,13.0927,13.0927,0,0,0,1.8975-.0831l.1377-.7392a4.8336,4.8336,0,0,1-.7578-.0928Zm-5.457,3.7373a4.7169,4.7169,0,0,1-.75-.0928l.4356-2.2764c.1748-.8964-.0928-1.5244-.99-1.5244a2.373,2.373,0,0,0-1.9326,1.5342l-.0185-.01a9.6634,9.6634,0,0,0,.5-1.6357l.3691-1.9522a13.5254,13.5254,0,0,0-1.97.0831l-.1377.74c.2676.0185.5635.0557.7754.0928l-1.1094,5.8447H98.34l.2227-1.165c.1934-1.0733,1.0352-2.5166,1.6543-2.5166.2871,0,.3789.2314.2773.7958L99.94,57.9971a13.1828,13.1828,0,0,0,1.9317-.0743ZM96.8135,53.456a4.6332,4.6332,0,0,0-1.1748-.1484c-1.4981,0-2.6543,1.2852-2.6543,3.1631,0,.9814.49,1.6,1.7656,1.6a4.34,4.34,0,0,0,1.2578-.2031L96.1,56.8418a2.7243,2.7243,0,0,1-1.0352.2031c-.6562,0-.8515-.3516-.8515-.833,0-1.0186.5547-1.915,1.2871-1.915a1.264,1.264,0,0,1,.3144.0459c-.02.1943-.0283.4257-.0283.6113h.74Zm-4.459-.0459a5.2281,5.2281,0,0,0-1.0811-.1113c-1.3515,0-2.0527.711-2.0527,1.5527,0,1.2208,1.6543,1.2032,1.6543,1.8321,0,.3428-.3047.5459-.7676.5459a1.7544,1.7544,0,0,1-.3418-.0371c.0176-.1846.0274-.3975.0274-.583h-.7207l-.2588,1.3681a6.2154,6.2154,0,0,0,1.0439.1026c1.3877,0,2.1914-.794,2.1914-1.6368,0-1.166-1.6562-1.2021-1.6562-1.8222,0-.3067.2422-.51.7051-.51a1.3771,1.3771,0,0,1,.2949.0283c-.0176.1856-.0176.3789-.0176.5821h.7207Zm-3.7178-.02h-1.082l.3135-1.6455-1.2022.2383-.2773,1.4072h-.7666l-.1846.9151h.7852l-.4258,2.2021c-.2032,1.1006.0742,1.5723,1.0644,1.5723a4.301,4.301,0,0,0,.9434-.12l.1113-.9433a2.5217,2.5217,0,0,1-.5742.0654c-.3789,0-.4629-.1484-.3516-.7031l.3887-2.0732h1.082Zm-3.4961-.083c-.8974-.1846-1.4062.4893-1.8965,1.47h-.02a8.74,8.74,0,0,0,.3984-1.3955,12.9156,12.9156,0,0,0-1.9043.0821l-.1386.74c.2578.0185.5644.0557.7763.0928l-.0087.0283-.7032,3.6611h1.1641l.1855-.998c.2784-1.4707,1.0645-2.84,1.8965-2.5342Zm-4.6054,3.8672c-.2588-.02-.5538-.0557-.7676-.0928l.7129-3.7012a13.4841,13.4841,0,0,0-1.9707.0831l-.1377.7412a7.5394,7.5394,0,0,1,.7666.0918l-.7022,3.7a13.8126,13.8126,0,0,0,1.97-.0831Zm.3417-5.1621a.6679.6679,0,0,0-.6835-.6465.7792.7792,0,0,0-.7852.7666.6722.6722,0,0,0,.6836.665.7842.7842,0,0,0,.7851-.7851M78.5,51.7451H76.1885l-.1475.7481c.1836.0361.4151.083.6.1015l-1.1269,2.6367c-.1573.3887-.2969.7686-.4356,1.2022h-.0088a10.522,10.522,0,0,0-.0185-1.2207l-.2969-3.4678h-1.248l-1.6,3.4863a11.7139,11.7139,0,0,0-.4726,1.23h-.0078a11.3418,11.3418,0,0,0,.0176-1.2578l-.1387-2.6094c.2314-.0185.4814-.0654.6846-.1015l.14-.7481h-2.332l-.1475.7568a2.428,2.428,0,0,0,.4629.084l.3057,5.4h1.3769L73.35,54.5185a10.3723,10.3723,0,0,0,.4619-1.2578H73.82a9.9781,9.9781,0,0,0-.0088,1.2862l.2412,3.4394h1.4414l2.3682-5.4a2.7549,2.7549,0,0,0,.49-.084ZM66.4575,53.3076a1.4985,1.4985,0,0,0-1.6743,1.1738h-.0088a7.1121,7.1121,0,0,0,.0918-1.0908,10.0756,10.0756,0,0,0-1.6079.0645v.4892c.2681.02.582.0567.8042.0938v3.331a4.2523,4.2523,0,0,0-.8042.1289v.4883h2.44V57.498a4.2456,4.2456,0,0,0-.8037-.1289V56.1377c0-1.4707.4707-2.1826,1.5259-2.0166Zm-4.8384,1.7393h-2.145a1.1615,1.1615,0,0,1,1.1192-1.1289.9959.9959,0,0,1,1.0258,1.1289m.8511.1943a1.7366,1.7366,0,0,0-1.84-1.9336c-1.3042,0-2.0533,1.0264-2.0533,2.4043,0,1.62.7583,2.3584,2.1734,2.3584a4.09,4.09,0,0,0,1.5537-.2861l-.0737-.6748a3.2636,3.2636,0,0,1-1.3413.2871c-.98,0-1.4888-.5274-1.4517-1.7588h3.0049a3.3353,3.3353,0,0,0,.0278-.3965m-6.168.3691c0,.8057-.4257,1.7764-1.2587,1.7764-.6944,0-1.0181-.5644-1.0181-1.5537,0-1.3232.583-1.8516,1.4619-1.8516a3.1675,3.1675,0,0,1,.8149.1026Zm1.608,2.3125v-.4892c-.25-.0186-.5547-.0557-.7769-.0928V51.2353a10.4309,10.4309,0,0,0-1.6372.0655v.49c.269.0186.584.0557.8061.0928V53.373a7.6027,7.6027,0,0,0-.7778-.0459,2.3021,2.3021,0,0,0-2.3769,2.58c0,1.3418.5639,2.1631,1.6919,2.1631a1.63,1.63,0,0,0,1.5458-1.0254l.0181.0088a5.3988,5.3988,0,0,0-.0742.9336,9.8347,9.8347,0,0,0,1.5811-.0645"></path><path class="cls-1" d="M119.2725,44.2471h-2.1456a1.1624,1.1624,0,0,1,1.1192-1.13.9972.9972,0,0,1,1.0264,1.13m.8505.1943a1.7363,1.7363,0,0,0-1.84-1.9326c-1.3037,0-2.0527,1.0254-2.0527,2.4033,0,1.6191.7578,2.3584,2.1738,2.3584a4.0682,4.0682,0,0,0,1.5527-.2861l-.0732-.6748a3.282,3.282,0,0,1-1.3408.2871c-.9815,0-1.4893-.5274-1.4522-1.7578h3.0049a3.2359,3.2359,0,0,0,.0273-.3975m-5.28,2.1269V40.4365a10.3545,10.3545,0,0,0-1.627.0635v.4912c.2686.0186.583.0557.8047.0918v5.4853a4.45,4.45,0,0,0-.8047.13v.4893h2.4131v-.4893a4.0857,4.0857,0,0,0-.7861-.13m-2.0987.5547v-.4892c-.26-.0186-.5654-.0557-.7871-.0928v-3.94a9.4344,9.4344,0,0,0-1.5625.0644v.4981c.25.0185.5274.0459.74.083v1.5605c0,1.0147-.5547,1.7813-1.3145,1.7813-.6016,0-.7773-.3789-.7773-1.0254V42.6006a9.7788,9.7788,0,0,0-1.6084.0644v.4883c.25.02.5556.0557.7763.0928v2.5664c0,.8115.3243,1.4678,1.3789,1.4678a1.6751,1.6751,0,0,0,1.6192-1.0616l.0185.0088a6.6186,6.6186,0,0,0-.0654.96,9.7044,9.7044,0,0,0,1.582-.0645m-5.4961.0645v-.4893a3.9812,3.9812,0,0,0-.7763-.13v-2.6c0-.8144-.3233-1.4707-1.377-1.4707a1.664,1.664,0,0,0-1.6006,1.0352l-.02-.0088a4.6148,4.6148,0,0,0,.0742-.915V40.4365a10.3537,10.3537,0,0,0-1.6269.0635v.4912c.2685.0186.582.0557.8047.0918v5.4853a4.4218,4.4218,0,0,0-.8047.13v.4893h2.3769v-.4981a4.8262,4.8262,0,0,0-.75-.1211V44.9775c0-1.0185.5557-1.7861,1.3145-1.7861.6015,0,.7861.3789.7861,1.0273v2.9688Zm-5.92-.1748-.0547-.7217a2.6257,2.6257,0,0,1-1.1289.25c-1.082,0-1.3867-.7031-1.3867-1.6377,0-1.0361.4717-1.7119,1.332-1.7119a1.8379,1.8379,0,0,1,.5723.083c.0283.2217.0654.4814.1211.75h.5186V42.6836a3.9181,3.9181,0,0,0-1.1006-.1572,2.2113,2.2113,0,0,0-2.3125,2.5156c0,1.6933.9433,2.2109,2.081,2.2109a4.0223,4.0223,0,0,0,1.3584-.24m-4.3652-1.23c0-1.5264-2.3027-.9531-2.3027-1.9892,0-.417.3144-.6758.9345-.6758a3.248,3.248,0,0,1,.5186.0459,4.7879,4.7879,0,0,0,.11.7314h.5078V42.6377a4.8391,4.8391,0,0,0-1.0634-.1289c-1.2022,0-1.8477.5908-1.8477,1.3769,0,1.6006,2.3115.9991,2.3115,2.0166,0,.4444-.4267.7217-1.0459.7217a3.3938,3.3938,0,0,1-.5468-.0459c-.0274-.24-.0645-.5088-.11-.73H93.92V47.15a4.4753,4.4753,0,0,0,1.082.12c1.2217,0,1.961-.6553,1.961-1.4883m-3.8574,1.4053v-.4893a3.9929,3.9929,0,0,0-.7774-.13v-2.6c0-.8144-.3222-1.4707-1.3769-1.4707a1.6657,1.6657,0,0,0-1.6006,1.0352l-.0186-.0088a4.6835,4.6835,0,0,0,.0742-.915V40.4365a10.3487,10.3487,0,0,0-1.6269.0635v.4912c.2676.0186.582.0557.8047.0918v5.4853a4.4218,4.4218,0,0,0-.8047.13v.4893h2.3769v-.4981a4.8438,4.8438,0,0,0-.75-.1211V44.9775c0-1.0185.5547-1.7861,1.3135-1.7861.6026,0,.7871.3789.7871,1.0273v2.9688Zm-5.92-.1748-.0546-.7217a2.6331,2.6331,0,0,1-1.129.25c-1.082,0-1.3867-.7031-1.3867-1.6377,0-1.0361.4707-1.7119,1.3321-1.7119a1.8422,1.8422,0,0,1,.5722.083c.0274.2217.0645.4814.1211.75h.5176V42.6836a3.917,3.917,0,0,0-1.1006-.1572,2.2106,2.2106,0,0,0-2.3115,2.5156c0,1.6933.9424,2.2109,2.08,2.2109a4.0285,4.0285,0,0,0,1.3593-.24m-5.15-2.1553c0,1.1748-.5928,1.7109-1.2774,1.7109-.8418,0-1.2949-.61-1.2949-1.7207,0-1.1386.6289-1.6474,1.2949-1.6474.8506,0,1.2774.6113,1.2774,1.6572m.8691-.0469c0-1.6562-.8975-2.3017-2.0723-2.3017a2.2353,2.2353,0,0,0-2.2383,2.4228c0,1.6192.8125,2.3389,2.0625,2.3389a2.2709,2.2709,0,0,0,2.2481-2.46m-4.9492,2.377v-.4893a4.0188,4.0188,0,0,0-.7774-.13v-2.6c0-.8144-.3232-1.4707-1.3779-1.4707a1.6649,1.6649,0,0,0-1.6006,1.0352l-.0185-.0088a4.7738,4.7738,0,0,0,.0732-.915V40.4365a10.36,10.36,0,0,0-1.627.0635v.4912c.2686.0186.584.0557.8057.0918v5.4853a4.4487,4.4487,0,0,0-.8057.13v.4893h2.377v-.4981a4.8069,4.8069,0,0,0-.75-.1211V44.9775c0-1.0185.5557-1.7861,1.3145-1.7861.6015,0,.7871.3789.7871,1.0273v2.9688Zm-5.8008,0v-.4893a3.9929,3.9929,0,0,0-.7774-.13v-2.6c0-.8144-.3222-1.4707-1.3769-1.4707a1.6658,1.6658,0,0,0-1.6006,1.0352l-.0185-.0088a4.6912,4.6912,0,0,0,.0742-.915V40.4365a10.3634,10.3634,0,0,0-1.6275.0635v.4912c.2691.0186.5826.0557.8052.0918v5.4853a4.4374,4.4374,0,0,0-.8052.13v.4893h2.3775v-.4981a4.8477,4.8477,0,0,0-.75-.1211V44.9775c0-1.0185.5556-1.7861,1.3135-1.7861.6025,0,.7871.3789.7871,1.0273v2.9688Zm-5.92-.1748L66.18,46.291a2.63,2.63,0,0,1-1.1289.25c-1.0821,0-1.3872-.7031-1.3872-1.6377,0-1.0361.4721-1.7119,1.332-1.7119a1.8443,1.8443,0,0,1,.5728.083c.0283.2217.0654.4814.121.75h.5181V42.6836a3.9127,3.9127,0,0,0-1.1011-.1572,2.2113,2.2113,0,0,0-2.312,2.5156c0,1.6933.9434,2.2109,2.0811,2.2109a4.0279,4.0279,0,0,0,1.3589-.24M60.52,45.1621a1.3806,1.3806,0,0,1-1.25,1.4619.6313.6313,0,0,1-.7031-.6377c0-.4541.4263-.9072,1.9531-.9072Zm1.6079,1.9609v-.4892c-.249-.0186-.5547-.0557-.7768-.0928V44.0332c0-.916-.3779-1.5352-1.71-1.5352a4.6964,4.6964,0,0,0-1.5732.25v1.2676h.5083c.0469-.2588.0928-.52.1108-.75a3.2592,3.2592,0,0,1,.8521-.1113c.75,0,.9809.3418.9809.99v.3516c-1.74.01-2.7661.6289-2.7661,1.6387A1.123,1.123,0,0,0,59.03,47.2705a1.64,1.64,0,0,0,1.5639-.9981h.0181a5.6362,5.6362,0,0,0-.0464.9151,9.4554,9.4554,0,0,0,1.562-.0645m-5.059-4.7265V40.9443H53.0278v.49a4.2459,4.2459,0,0,0,.8047.1289v5.0048a4.41,4.41,0,0,0-.8047.13v.4893h2.45v-.4893a4.4065,4.4065,0,0,0-.8051-.13V44.375h1.3691c.0371.2226.084.4443.13.63h.518V43.0908h-.518c-.0459.1934-.0928.4063-.13.6289H54.6724V41.6191h1.6753c.0268.2491.0727.4991.1289.7774Z"></path><polygon class="cls-1" points="49.606 39.908 49.606 59.747 51.437 59.747 51.437 59.091 50.383 59.091 50.383 40.545 51.437 40.545 51.437 39.908 49.606 39.908"></polygon><polygon class="cls-1" points="121.609 39.908 121.609 40.545 122.664 40.545 122.664 59.091 121.609 59.091 121.609 59.747 123.439 59.747 123.439 39.908 121.609 39.908"></polygon><polygon class="cls-1" points="0 0 0 35.434 10.918 35.434 10.918 21.935 25.511 21.935 25.511 13.498 10.918 13.498 10.918 9.082 25.511 9.082 25.511 0 0 0"></polygon><polygon class="cls-1" points="28.346 0 28.346 35.434 39.264 35.434 39.264 21.935 57.564 21.935 57.564 13.498 39.264 13.498 39.264 0 28.346 0"></polygon><rect class="cls-1" x="81.5664" width="10.6582" height="35.4336"></rect><polygon class="cls-1" points="103.157 0 82.018 35.434 92.225 35.434 105.533 13.126 113.365 0 103.157 0"></polygon><polygon class="cls-1" points="124.299 0 103.157 35.434 113.365 35.434 134.505 0 124.299 0"></polygon><polygon class="cls-1" points="103.4 0 102.708 15.226 102.708 35.434 113.365 35.434 113.365 0 103.4 0"></polygon><path class="cls-1" d="M60.5244,9.082h3.4741c7.89,0,8.5855,6.2031,8.5855,8.4365,0,3.3243-.9942,8.833-7.7915,8.833H60.5244ZM49.6064,35.4336H65.3872c12.3569,0,17.7583-6.8985,17.7583-17.7666C83.1455,8.7344,79.332,0,67.5215,0H49.6064Z"></path></g></g></svg>